<svg width="79" height="79" viewBox="0 0 79 79" fill="none" xmlns="http://www.w3.org/2000/svg">
<path d="M44.1875 25.4375L53.5625 53.5625L62.9375 25.4375M30.125 53.5625C25.7568 53.5625 23.5727 53.5625 21.8498 52.8491C19.5527 51.8975 17.7276 50.0722 16.7761 47.7753C16.0625 46.0522 16.0625 43.8683 16.0625 39.5C16.0625 35.1317 16.0625 32.9478 16.7761 31.2247C17.7276 28.9277 19.5527 27.1026 21.8498 26.1511C23.5727 25.4375 25.7568 25.4375 30.125 25.4375M17 77H62C67.2505 77 69.8759 77 71.8813 75.9781C73.6452 75.0795 75.0795 73.6452 75.9781 71.8813C77 69.8759 77 67.2505 77 62V17C77 11.7495 77 9.12425 75.9781 7.11884C75.0795 5.3548 73.6452 3.92061 71.8813 3.02183C69.8759 2 67.2505 2 62 2H17C11.7495 2 9.12425 2 7.11884 3.02183C5.3548 3.92061 3.92061 5.3548 3.02183 7.11884C2 9.12425 2 11.7495 2 17V62C2 67.2505 2 69.8759 3.02183 71.8813C3.92061 73.6452 5.3548 75.0795 7.11884 75.9781C9.12425 77 11.7495 77 17 77Z" stroke="white" stroke-width="3" stroke-linecap="round" stroke-linejoin="round"/>
</svg>
