<svg width="79" height="79" viewBox="0 0 79 79" fill="none" xmlns="http://www.w3.org/2000/svg">
<path d="M56.1667 39.5C56.1667 48.7046 48.7046 56.1667 39.5 56.1667C30.2952 56.1667 22.8333 48.7046 22.8333 39.5C22.8333 30.2952 30.2952 22.8333 39.5 22.8333C48.7046 22.8333 56.1667 30.2952 56.1667 39.5ZM56.1667 39.5V45.75C56.1667 51.5029 60.8304 56.1667 66.5833 56.1667C72.3362 56.1667 77 51.5029 77 45.75V39.5C77 18.7893 60.2108 2 39.5 2C18.7893 2 2 18.7893 2 39.5C2 60.2108 18.7893 77 39.5 77H56.1667" stroke="white" stroke-width="4" stroke-linecap="round" stroke-linejoin="round"/>
</svg>
