<svg width="75" height="75" viewBox="0 0 75 75" fill="none" xmlns="http://www.w3.org/2000/svg">
<path fill-rule="evenodd" clip-rule="evenodd" d="M37.5 0C58.2112 0 74.9999 17.2122 74.9999 38.4484C74.9999 55.4322 64.2674 69.8398 49.3762 74.9285C47.4749 75.3073 46.8 74.1066 46.8 73.0828C46.8 71.8153 46.8449 67.6754 46.8449 62.5304C46.8449 58.9454 45.645 56.6056 44.2987 55.4131C52.65 54.4606 61.4249 51.2091 61.4249 36.4416C61.4249 32.2416 59.9699 28.8143 57.5624 26.1218C57.9524 25.1505 59.2387 21.2398 57.1949 15.9448C57.1949 15.9448 54.0524 14.9146 46.8937 19.8871C43.8974 19.0358 40.6875 18.6075 37.5 18.5925C34.3125 18.6075 31.1062 19.0358 28.1137 19.8871C20.9475 14.9146 17.7975 15.9448 17.7975 15.9448C15.7612 21.2398 17.0475 25.1505 17.4337 26.1218C15.0375 28.8143 13.5712 32.2416 13.5712 36.4416C13.5712 51.1716 22.3275 54.473 30.6562 55.4443C29.5837 56.4043 28.6125 58.0978 28.275 60.584C26.1375 61.5665 20.7075 63.2669 17.3625 57.3907C17.3625 57.3907 15.3787 53.6965 11.6137 53.4265C11.6137 53.4265 7.95749 53.3779 11.3587 55.7629C11.3587 55.7629 13.815 56.9441 15.5212 61.3879C15.5212 61.3879 17.7225 68.2502 28.155 65.9252C28.1737 69.139 28.2075 72.1678 28.2075 73.0828C28.2075 74.0991 27.5175 75.2884 25.6462 74.9322C10.7437 69.8509 0 55.4359 0 38.4484C0 17.2122 16.7925 0 37.5 0Z" fill="white"/>
</svg>
