<svg width="500" height="500" viewBox="0 0 500 500" fill="none" xmlns="http://www.w3.org/2000/svg">
<path d="M470.579 374.158L297.765 474.587C294.103 476.723 288.202 476.723 284.539 474.621L21.9542 322.997C18.2916 320.895 18.2916 317.47 21.9542 315.333L194.768 214.905C198.397 212.802 204.298 212.802 207.96 214.905L470.546 366.494C474.208 368.63 474.242 372.056 470.579 374.158Z" fill="#B7C5FD"/>
<path d="M262.647 380.848C264.73 382.05 264.717 384.009 262.648 385.211L219.688 410.177C217.619 411.38 214.237 411.393 212.155 410.191L127.498 361.314C125.415 360.111 125.427 358.152 127.496 356.95L170.457 331.984C172.526 330.782 175.907 330.768 177.99 331.971L262.647 380.848Z" fill="#9AADFD"/>
<path d="M473.293 370.36L473.259 384.196C473.259 385.553 472.343 386.943 470.546 387.994L297.731 488.423C294.069 490.526 288.168 490.526 284.505 488.423L21.9202 336.834C20.089 335.782 19.1733 334.392 19.1733 332.968L19.2072 319.165C19.2072 320.556 20.1227 321.946 21.9541 322.997L284.539 474.621C288.202 476.723 294.103 476.723 297.765 474.587L470.58 374.158C472.411 373.107 473.293 371.75 473.293 370.36Z" fill="#9AADFD"/>
<path d="M467.273 164.343C470.932 166.455 473.889 171.576 473.877 175.781L473.409 360.522C473.397 364.701 470.421 366.422 466.762 364.31L207.96 214.905C204.301 212.792 201.345 207.646 201.356 203.466L201.825 18.7258C201.836 14.5211 204.812 12.8253 208.472 14.9378L467.273 164.343Z" fill="#9AADFD"/>
<path d="M337.617 97.4252C340.792 99.2583 343.309 103.66 343.299 107.267C343.289 110.874 340.755 112.359 337.58 110.526C334.441 108.714 331.924 104.312 331.934 100.705C331.944 97.0983 334.478 95.6129 337.617 97.4252Z" fill="#4466FB"/>
<path d="M480.827 171.754L480.352 356.488C480.352 358.556 479.606 360.049 478.419 360.727L471.478 364.763C472.665 364.085 473.411 362.593 473.411 360.524L473.886 175.791C473.886 171.586 470.935 166.465 467.273 164.329L208.47 14.9407C206.639 13.8894 204.977 13.7878 203.756 14.4659L210.697 10.4294C211.884 9.7511 213.58 9.85269 215.411 10.904L474.214 160.326C477.876 162.428 480.827 167.549 480.827 171.754Z" fill="#B7C5FD"/>
<path d="M464.536 191.525L464.085 351.999L210.697 205.719L211.148 45.2454L464.536 191.525Z" fill="white"/>
<path d="M432.514 251.294L432.487 260.855L311.38 190.933L311.407 181.372L432.514 251.294Z" fill="#6BB5FB"/>
<path d="M432.395 293.331L432.368 302.891L311.26 232.97L311.288 223.409L432.395 293.331Z" fill="#6BB5FB"/>
<path d="M432.454 272.388L432.428 281.797L311.32 211.876L311.347 202.467L432.454 272.388Z" fill="#6BB5FB"/>
<path d="M432.705 191.413L432.591 231.477L233.299 116.416L233.412 76.3518L432.705 191.413Z" fill="#4466FB"/>
<path d="M297.539 173.366L297.393 224.964L233.075 187.83L233.222 136.232L297.539 173.366Z" fill="#798FFE"/>
<path d="M377.048 256.057L404.622 274.807L397.84 278.671L407.669 295.694L396.027 302.26L386.198 285.237L379.417 289.101L377.048 256.057Z" fill="#384E85"/>
<path d="M300.017 322.536L285.209 331.141L268.308 321.383L283.116 312.778L300.017 322.536Z" fill="#384E85"/>
<path d="M281.338 333.39L266.531 341.995L249.63 332.238L264.437 323.632L281.338 333.39Z" fill="#384E85"/>
<path d="M223.888 235.305L209.032 243.938L192.131 234.18L206.987 225.547L223.888 235.305Z" fill="#384E85"/>
<path d="M246.585 248.409L231.729 257.042L214.828 247.285L229.684 238.651L246.585 248.409Z" fill="#384E85"/>
<path d="M213.636 251.025L198.78 259.658L173.453 245.035L188.308 236.402L213.636 251.025Z" fill="#384E85"/>
<path d="M269.282 261.514L254.427 270.147L237.526 260.389L252.381 251.756L269.282 261.514Z" fill="#384E85"/>
<path d="M236.333 264.129L221.477 272.762L204.576 263.004L219.432 254.371L236.333 264.129Z" fill="#384E85"/>
<path d="M167.853 267.869L153.045 276.474L136.144 266.716L150.952 258.111L167.853 267.869Z" fill="#384E85"/>
<path d="M209.228 270.119L194.421 278.724L154.823 255.862L169.63 247.257L209.228 270.119Z" fill="#384E85"/>
<path d="M291.979 274.618L277.124 283.251L260.223 273.493L275.078 264.86L291.979 274.618Z" fill="#384E85"/>
<path d="M259.03 277.233L244.174 285.866L227.273 276.108L242.129 267.475L259.03 277.233Z" fill="#384E85"/>
<path d="M190.55 280.973L175.742 289.578L158.841 279.821L173.649 271.216L190.55 280.973Z" fill="#384E85"/>
<path d="M231.925 283.223L217.118 291.828L200.217 282.07L215.024 273.465L231.925 283.223Z" fill="#384E85"/>
<path d="M314.677 287.722L299.821 296.355L282.92 286.597L297.776 277.964L314.677 287.722Z" fill="#384E85"/>
<path d="M281.727 290.337L266.871 298.97L249.97 289.213L264.826 280.58L281.727 290.337Z" fill="#384E85"/>
<path d="M171.871 291.828L157.064 300.433L117.466 277.571L132.273 268.966L171.871 291.828Z" fill="#384E85"/>
<path d="M213.247 294.078L198.44 302.683L181.539 292.925L196.346 284.32L213.247 294.078Z" fill="#384E85"/>
<path d="M254.622 296.327L239.815 304.932L222.914 295.174L237.721 286.569L254.622 296.327Z" fill="#384E85"/>
<path d="M337.374 300.826L322.518 309.459L305.617 299.701L320.473 291.068L337.374 300.826Z" fill="#384E85"/>
<path d="M304.424 303.442L289.569 312.075L272.716 302.345L287.572 293.712L304.424 303.442Z" fill="#384E85"/>
<path d="M235.944 307.182L221.137 315.787L204.236 306.029L219.043 297.424L235.944 307.182Z" fill="#384E85"/>
<path d="M277.32 309.431L262.512 318.036L245.611 308.279L260.419 299.674L277.32 309.431Z" fill="#384E85"/>
<path d="M258.641 320.286L243.834 328.891L226.933 319.133L241.74 310.528L258.641 320.286Z" fill="#384E85"/>
<path d="M263.634 344.808L248.827 353.413L162.86 303.78L177.667 295.175L263.634 344.808Z" fill="#384E85"/>
<path d="M330.751 383.558L315.944 392.163L299.043 382.405L313.85 373.8L330.751 383.558Z" fill="#384E85"/>
<path d="M308.054 370.453L293.247 379.058L276.346 369.301L291.153 360.696L308.054 370.453Z" fill="#384E85"/>
<path d="M285.357 357.349L270.55 365.954L253.649 356.196L268.456 347.591L285.357 357.349Z" fill="#384E85"/>
<path d="M304.035 346.494L289.228 355.1L272.327 345.342L287.134 336.737L304.035 346.494Z" fill="#384E85"/>
<path d="M322.714 335.64L307.907 344.245L291.006 334.487L305.813 325.882L322.714 335.64Z" fill="#384E85"/>
<path d="M349.867 329.678L335.012 338.311L318.111 328.553L332.966 319.92L349.867 329.678Z" fill="#384E85"/>
<path d="M360.071 313.93L345.215 322.564L328.314 312.806L343.17 304.173L360.071 313.93Z" fill="#384E85"/>
<path d="M428.162 353.243L413.307 361.876L396.454 352.146L411.31 343.513L428.162 353.243Z" fill="#384E85"/>
<path d="M432.23 377.23L417.374 385.863L386.202 367.866L401.058 359.233L432.23 377.23Z" fill="#384E85"/>
<path d="M349.43 372.703L334.623 381.308L317.721 371.55L332.529 362.945L349.43 372.703Z" fill="#384E85"/>
<path d="M413.551 388.085L398.744 396.69L359.146 373.828L373.953 365.223L413.551 388.085Z" fill="#384E85"/>
<path d="M368.108 361.848L353.301 370.453L336.4 360.695L351.207 352.09L368.108 361.848Z" fill="#384E85"/>
<path d="M395.262 355.886L380.406 364.52L363.505 354.762L378.361 346.129L395.262 355.886Z" fill="#384E85"/>
<path d="M405.465 340.139L390.61 348.772L373.708 339.014L388.564 330.381L405.465 340.139Z" fill="#384E85"/>
<path d="M345.411 348.744L330.604 357.349L313.703 347.591L328.51 338.986L345.411 348.744Z" fill="#384E85"/>
<path d="M372.564 342.782L357.709 351.415L340.808 341.658L355.663 333.024L372.564 342.782Z" fill="#384E85"/>
<path d="M382.768 327.035L367.912 335.668L351.011 325.91L365.867 317.277L382.768 327.035Z" fill="#384E85"/>
<path d="M450.908 366.375L436.052 375.008L419.151 365.251L434.007 356.617L450.908 366.375Z" fill="#384E85"/>
<path d="M327.17 316.574L312.314 325.207L295.413 315.449L310.269 306.816L327.17 316.574Z" fill="#384E85"/>
<path d="M353.448 396.662L338.641 405.267L321.789 395.537L336.596 386.932L353.448 396.662Z" fill="#384E85"/>
<path d="M394.873 398.939L361.387 418.399L344.486 408.641L377.972 389.182L394.873 398.939Z" fill="#384E85"/>
</svg>
