<svg width="71" height="71" viewBox="0 0 71 71" fill="none" xmlns="http://www.w3.org/2000/svg">
<rect x="1" y="1" width="70" height="70" rx="5" fill="white"/>
<path d="M16.7955 57.448C16.1128 57.448 15.5582 57.2987 15.1315 57C14.7475 56.6587 14.5128 56.232 14.4275 55.72C14.3848 55.1653 14.5128 54.5467 14.8115 53.864L32.4115 13.8C32.7955 12.9467 33.2435 12.3493 33.7555 12.008C34.3102 11.624 34.9075 11.432 35.5475 11.432C36.1875 11.432 36.7635 11.624 37.2755 12.008C37.8302 12.3493 38.2782 12.9467 38.6195 13.8L56.2835 53.864C56.6248 54.5467 56.7528 55.1653 56.6675 55.72C56.6248 56.2747 56.4115 56.7013 56.0275 57C55.6435 57.2987 55.1102 57.448 54.4275 57.448C53.6595 57.448 53.0408 57.256 52.5715 56.872C52.1022 56.4453 51.7182 55.848 51.4195 55.08L46.6835 44.136L49.2435 45.48H21.7235L24.3475 44.136L19.6755 55.08C19.2915 55.8907 18.8862 56.488 18.4595 56.872C18.0328 57.256 17.4782 57.448 16.7955 57.448ZM35.4835 18.024L25.1795 42.28L23.6435 41.064H47.3235L45.9155 42.28L35.6115 18.024H35.4835Z" fill="black"/>
</svg>
