<svg width="30" height="30" viewBox="0 0 30 30" fill="none" xmlns="http://www.w3.org/2000/svg">
<path opacity="0.5" fill-rule="evenodd" clip-rule="evenodd" d="M29.9993 15.0004C29.9993 23.2844 23.2837 30.0001 14.9996 30.0001C13.2534 30.0001 11.5767 29.7016 10.018 29.153C9.36182 27.5653 8.99976 25.825 8.99976 24.0002C8.99976 20.6685 10.2067 17.6186 12.2073 15.2641C13.9647 17.8224 16.9112 19.5003 20.2495 19.5003C23.7917 19.5003 26.8927 17.6112 28.6001 14.7856C28.9591 14.1916 29.9993 14.3063 29.9993 15.0004Z" fill="white"/>
<path d="M0 14.9997C0 21.5374 4.18269 27.0983 10.0181 29.1523C9.36187 27.5646 8.99981 25.8244 8.99981 23.9995C8.99981 20.6678 10.2068 17.6179 12.2073 15.2634C11.1302 13.6952 10.4998 11.7961 10.4998 9.74979C10.4998 6.20754 12.3888 3.10651 15.2145 1.39911C15.8085 1.04018 15.6937 0 14.9997 0C6.71558 0 0 6.71558 0 14.9997Z" fill="white"/>
</svg>
