<svg width="39" height="39" viewBox="0 0 39 39" fill="none" xmlns="http://www.w3.org/2000/svg">
<path d="M11.2479 16.5833C10.9255 17.4955 10.75 18.4773 10.75 19.5C10.75 24.3324 14.6675 28.25 19.5 28.25C24.3324 28.25 28.25 24.3324 28.25 19.5C28.25 14.6675 24.3324 10.75 19.5 10.75C18.4773 10.75 17.4955 10.9255 16.5833 11.2479" stroke="#FFAC33" stroke-width="3" stroke-linecap="round"/>
<path d="M19.5 2V5.5" stroke="#FFAC33" stroke-width="3" stroke-linecap="round"/>
<path d="M19.5 33.5V37" stroke="#FFAC33" stroke-width="3" stroke-linecap="round"/>
<path d="M5.5 19.5H2" stroke="#FFAC33" stroke-width="3" stroke-linecap="round"/>
<path d="M37 19.5H33.5" stroke="#FFAC33" stroke-width="3" stroke-linecap="round"/>
<path d="M33.1112 5.88965L29.2227 9.44491" stroke="#FFAC33" stroke-width="3" stroke-linecap="round"/>
<path d="M5.88892 5.88965L9.77743 9.44491" stroke="#FFAC33" stroke-width="3" stroke-linecap="round"/>
<path d="M9.77758 29.2224L5.88867 33.1113" stroke="#FFAC33" stroke-width="3" stroke-linecap="round"/>
<path d="M33.1112 33.1103L29.2227 29.2214" stroke="#FFAC33" stroke-width="3" stroke-linecap="round"/>
</svg>
