<svg width="90" height="75" viewBox="0 0 90 75" fill="none" xmlns="http://www.w3.org/2000/svg">
<path d="M83.4193 0.604707L4.14317 31.2452C-1.20676 33.1906 -1.20676 36.5951 3.17045 37.5678L23.1111 43.8905L30.8928 67.2356C31.8655 69.6674 31.3792 70.6401 33.8109 70.6401C35.7564 70.6401 36.7291 69.6674 37.7018 68.6947C38.1881 68.2083 42.5654 63.8311 47.4289 58.9675L67.8559 74.0446C71.7468 75.99 74.1786 75.0173 75.1513 70.6401L88.7692 6.92734C90.2283 1.57742 86.8238 -1.34072 83.4193 0.604707ZM73.2058 15.1954L35.27 49.7267L33.8109 65.7765L26.0292 42.4314L70.7741 14.2227C72.7195 12.7636 74.6649 13.7363 73.2058 15.1954Z" fill="white"/>
</svg>
