<svg width="75" height="75" viewBox="0 0 75 75" fill="none" xmlns="http://www.w3.org/2000/svg">
<path d="M37.5 75C58.2107 75 75 58.2107 75 37.5C75 16.7893 58.2107 0 37.5 0C16.7893 0 0 16.7893 0 37.5C0 58.2107 16.7893 75 37.5 75Z" fill="#F0F0F0"/>
<path d="M7.7521 14.6692C4.80645 18.5017 2.5853 22.9189 1.29199 27.7176H20.8005L7.7521 14.6692Z" fill="#0052B4"/>
<path d="M73.7084 27.7177C72.4151 22.9191 70.1938 18.5019 67.2483 14.6694L54.2002 27.7177H73.7084Z" fill="#0052B4"/>
<path d="M1.29199 47.2827C2.58545 52.0812 4.80659 56.4985 7.7521 60.3308L20.8 47.2827H1.29199Z" fill="#0052B4"/>
<path d="M60.331 7.752C56.4985 4.80635 52.0814 2.58521 47.2827 1.29175V20.8001L60.331 7.752Z" fill="#0052B4"/>
<path d="M14.6699 67.2477C18.5024 70.1933 22.9196 72.4145 27.7182 73.7079V54.1997L14.6699 67.2477Z" fill="#0052B4"/>
<path d="M27.718 1.29175C22.9195 2.58521 18.5022 4.80635 14.6699 7.75186L27.718 20.7999V1.29175Z" fill="#0052B4"/>
<path d="M47.2827 73.7079C52.0812 72.4145 56.4985 70.1933 60.3308 67.2478L47.2827 54.1997V73.7079Z" fill="#0052B4"/>
<path d="M54.2002 47.2827L67.2483 60.331C70.1938 56.4986 72.4151 52.0812 73.7084 47.2827H54.2002Z" fill="#0052B4"/>
<path d="M74.6826 32.6087H42.3916H42.3914V0.317432C40.7902 0.108984 39.1578 0 37.5 0C35.8419 0 34.2098 0.108984 32.6087 0.317432V32.6084V32.6086H0.317432C0.108984 34.2098 0 35.8422 0 37.5C0 39.1581 0.108984 40.7902 0.317432 42.3913H32.6084H32.6086V74.6826C34.2098 74.891 35.8419 75 37.5 75C39.1578 75 40.7902 74.8912 42.3913 74.6826V42.3916V42.3914H74.6826C74.891 40.7902 75 39.1581 75 37.5C75 35.8422 74.891 34.2098 74.6826 32.6087Z" fill="#D80027"/>
<path d="M47.2827 47.2829L64.0165 64.0166C64.7861 63.2473 65.5203 62.443 66.2208 61.6092L51.8943 47.2827H47.2827V47.2829Z" fill="#D80027"/>
<path d="M27.7173 47.2827H27.717L10.9834 64.0164C11.7527 64.786 12.5571 65.5202 13.3909 66.2207L27.7173 51.8939V47.2827Z" fill="#D80027"/>
<path d="M27.7174 27.7176V27.7173L10.9836 10.9834C10.214 11.7527 9.47979 12.5571 8.7793 13.3909L23.1059 27.7175L27.7174 27.7176Z" fill="#D80027"/>
<path d="M47.2827 27.7175L64.0166 10.9834C63.2473 10.2138 62.443 9.47964 61.6092 8.7793L47.2827 23.1059V27.7175Z" fill="#D80027"/>
</svg>
