<svg width="50" height="75" viewBox="0 0 50 75" fill="none" xmlns="http://www.w3.org/2000/svg">
<path fill-rule="evenodd" clip-rule="evenodd" d="M25 37.5C25 30.5966 30.5966 25 37.5 25C44.4034 25 50 30.5966 50 37.5C50 44.4034 44.4034 50 37.5 50C30.5966 50 25 44.4034 25 37.5Z" fill="#1ABCFE"/>
<path fill-rule="evenodd" clip-rule="evenodd" d="M0 62.5C0 55.5966 5.59644 50 12.5 50H25V62.5C25 69.4034 19.4034 75 12.5 75C5.59644 75 0 69.4034 0 62.5Z" fill="#0ACF83"/>
<path fill-rule="evenodd" clip-rule="evenodd" d="M25 0V25H37.5C44.4034 25 50 19.4034 50 12.5C50 5.59644 44.4034 0 37.5 0H25Z" fill="#FF7262"/>
<path fill-rule="evenodd" clip-rule="evenodd" d="M0 12.5C0 19.4034 5.59644 25 12.5 25H25V0H12.5C5.59644 0 0 5.59644 0 12.5Z" fill="#F24E1E"/>
<path fill-rule="evenodd" clip-rule="evenodd" d="M0 37.5C0 44.4034 5.59644 50 12.5 50H25V25H12.5C5.59644 25 0 30.5966 0 37.5Z" fill="#A259FF"/>
</svg>
