<svg width="75" height="75" viewBox="0 0 75 75" fill="none" xmlns="http://www.w3.org/2000/svg">
<path fill-rule="evenodd" clip-rule="evenodd" d="M1.56793 33.7147C-0.522643 35.8053 -0.522643 39.1948 1.56793 41.2854L33.7147 73.432C35.8053 75.5227 39.1948 75.5227 41.2854 73.432L73.432 41.2854C75.5227 39.1948 75.5227 35.8053 73.432 33.7147L41.2854 1.56793C39.1948 -0.522643 35.8053 -0.522643 33.7147 1.56793L1.56793 33.7147ZM23.9293 11.4557L27.1846 8.20034L35.8117 16.8274C36.345 16.6622 36.9115 16.5732 37.4989 16.5732C40.6425 16.5732 43.1909 19.1216 43.1909 22.2652C43.1909 22.8526 43.102 23.4194 42.9367 23.9524L51.5684 32.5841C52.1202 32.406 52.7084 32.3099 53.3194 32.3099C56.463 32.3099 59.0114 34.8583 59.0114 38.0018C59.0114 41.1454 56.463 43.6938 53.3194 43.6938C50.1758 43.6938 47.6274 41.1454 47.6274 38.0018C47.6274 37.1661 47.8074 36.3725 48.131 35.6575L40.0939 27.6205V48.4199C41.9328 49.3633 43.1909 51.2785 43.1909 53.4872C43.1909 56.6308 40.6425 59.1792 37.4989 59.1792C34.3554 59.1792 31.807 56.6308 31.807 53.4872C31.807 51.0508 33.3378 48.9719 35.49 48.1601V27.5924C33.3378 26.7805 31.807 24.7016 31.807 22.2652C31.807 21.407 31.9969 20.5932 32.3371 19.8635L23.9293 11.4557Z" fill="#EE513B"/>
</svg>
