<svg width="67" height="75" viewBox="0 0 67 75" fill="none" xmlns="http://www.w3.org/2000/svg">
<path d="M6.00586 67.3828L0 0H66.0645L60.0586 67.3828L32.959 75" fill="#E34F26"/>
<path d="M33.1055 69.1406L54.9316 63.1348L60.0586 5.41992H33.1055" fill="#EF652A"/>
<path d="M33.1055 30.4688H22.1191L21.3867 21.9727H33.1055V13.7695H12.3047L14.502 38.8184H33.1055V30.4688ZM32.959 52.002L23.7305 49.5117L23.1445 42.9199H14.9414L15.9668 55.957L32.959 60.6445V52.002Z" fill="#EBEBEB"/>
<path d="M32.959 30.4688V38.8184H43.2129L42.1875 49.5117L32.959 52.002V60.6445L49.9512 55.957L52.2949 30.4688H32.959ZM32.959 13.7695V21.9727H53.0273L53.7598 13.7695H32.959Z" fill="white"/>
</svg>
