<svg width="75" height="75" viewBox="0 0 75 75" fill="none" xmlns="http://www.w3.org/2000/svg">
<path d="M75 0H0V75H75V0Z" fill="#F5DE19"/>
<path d="M50.3809 58.5936C51.0199 59.8916 52.0128 60.9826 53.2449 61.7409C54.4771 62.4992 55.8985 62.8938 57.3452 62.8793C60.2648 62.8793 62.1318 61.4195 62.1318 59.3972C62.1318 56.9865 60.214 56.124 56.9997 54.7177L55.2372 53.9623C50.1479 51.7954 46.7729 49.082 46.7729 43.3445C46.7729 38.0597 50.7907 34.0338 57.0934 34.0338C59.1337 33.8864 61.1722 34.3431 62.9547 35.3467C64.7371 36.3504 66.1846 37.8566 67.1166 39.6775L61.6068 43.1998C61.2479 42.297 60.6231 41.5245 59.8151 40.9849C59.0071 40.4453 58.0542 40.164 57.0827 40.1784C56.6589 40.136 56.2308 40.1823 55.8258 40.3144C55.4209 40.4466 55.0479 40.6616 54.7306 40.9459C54.4134 41.2301 54.1588 41.5773 53.9831 41.9654C53.8075 42.3535 53.7146 42.7739 53.7104 43.1998C53.7104 45.3132 55.0202 46.1704 58.0443 47.4856L59.8068 48.2409C65.7961 50.8097 69.1818 53.4266 69.1818 59.3115C69.1818 65.657 64.197 69.1338 57.5032 69.1338C54.8951 69.2999 52.2946 68.7078 50.0156 67.4288C47.7366 66.1498 45.8764 64.2385 44.6595 61.9257L50.3809 58.5936ZM25.4836 59.2043C26.5898 61.1677 27.597 62.8284 30.0184 62.8284C32.3327 62.8284 33.7952 61.9231 33.7952 58.4007V34.4356H40.8425V58.4945C40.8425 65.7909 36.5568 69.1123 30.3184 69.1123C28.1133 69.2329 25.9233 68.6833 24.0363 67.536C22.1494 66.3886 20.6537 64.6971 19.7461 62.6838L25.4836 59.2043Z" fill="black"/>
</svg>
