<svg width="73" height="75" viewBox="0 0 73 75" fill="none" xmlns="http://www.w3.org/2000/svg">
<path d="M72.8132 16.967C72.8402 17.067 72.8543 17.17 72.8543 17.2736V33.3722C72.8543 33.7927 72.6293 34.1812 72.2645 34.3904L58.7527 42.1697V57.589C58.7527 58.0086 58.5296 58.3959 58.1658 58.6072L29.961 74.8437C29.8965 74.8804 29.826 74.9038 29.7556 74.9288C29.7292 74.9376 29.7043 74.9537 29.6764 74.9611C29.4792 75.013 29.272 75.013 29.0748 74.9611C29.0425 74.9523 29.0132 74.9347 28.9824 74.9229C28.9178 74.8995 28.8503 74.8789 28.7887 74.8437L0.58983 58.6072C0.225214 58.3978 0 58.0095 0 57.589V9.2933C0 9.18766 0.0146724 9.08496 0.0410827 8.98518C0.0498861 8.95144 0.0704275 8.92063 0.0821654 8.88688C0.104174 8.82526 0.124715 8.76216 0.156995 8.70494C0.179003 8.66679 0.211282 8.63598 0.237693 8.60077C0.271439 8.55382 0.302251 8.5054 0.341867 8.46431C0.375613 8.43057 0.41963 8.40562 0.457779 8.37628C0.500329 8.34107 0.538477 8.30292 0.586896 8.27504H0.588363L14.6885 0.156806C15.0519 -0.0522686 15.499 -0.0522686 15.8623 0.156806L29.9625 8.27504H29.9654C30.0124 8.30439 30.052 8.34107 30.0945 8.37481C30.1327 8.40416 30.1752 8.43057 30.209 8.46285C30.2501 8.5054 30.2794 8.55382 30.3146 8.60077C30.3396 8.63598 30.3733 8.66679 30.3939 8.70494C30.4276 8.76363 30.4467 8.82526 30.4702 8.88688C30.4819 8.92063 30.5024 8.95144 30.5112 8.98665C30.5383 9.08664 30.5521 9.18973 30.5523 9.2933V39.4583L42.302 32.6928V17.2722C42.302 17.1694 42.3166 17.0653 42.3431 16.967C42.3533 16.9318 42.3724 16.9009 42.3841 16.8672C42.4076 16.8056 42.4282 16.7425 42.4604 16.6853C42.4824 16.6471 42.5147 16.6163 42.5397 16.5811C42.5749 16.5341 42.6042 16.4857 42.6453 16.4446C42.6791 16.4109 42.7216 16.3859 42.7598 16.3566C42.8038 16.3214 42.8419 16.2832 42.8889 16.2554H42.8903L56.992 8.13712C57.3552 7.92774 57.8025 7.92774 58.1658 8.13712L72.2659 16.2554C72.3158 16.2847 72.354 16.3214 72.398 16.3551C72.4347 16.3845 72.4772 16.4109 72.511 16.4432C72.552 16.4857 72.5814 16.5341 72.6166 16.5811C72.643 16.6163 72.6753 16.6471 72.6958 16.6853C72.7296 16.7425 72.7487 16.8056 72.7721 16.8672C72.7853 16.9009 72.8044 16.9318 72.8132 16.967ZM70.5038 32.6928V19.3057L65.5695 22.1463L58.7527 26.0712V39.4583L70.5052 32.6928H70.5038ZM56.4036 56.9096V43.5137L49.6983 47.3432L30.5509 58.2712V71.7933L56.4036 56.9096ZM2.35052 11.3254V56.9096L28.2003 71.7918V58.2727L14.6959 50.6298L14.6915 50.6269L14.6856 50.624C14.6401 50.5976 14.602 50.5594 14.5594 50.5271C14.5227 50.4978 14.4802 50.4743 14.4479 50.442L14.445 50.4376C14.4068 50.401 14.3804 50.3555 14.3481 50.3144C14.3188 50.2748 14.2836 50.241 14.2601 50.1999L14.2586 50.1955C14.2322 50.1515 14.2161 50.0987 14.197 50.0488C14.1779 50.0048 14.153 49.9637 14.1413 49.9168V49.9153C14.1266 49.8595 14.1236 49.8008 14.1178 49.7436C14.1119 49.6996 14.1002 49.6556 14.1002 49.6116V49.6086V18.0909L7.28484 14.1645L2.35052 11.3269V11.3254ZM15.2769 2.5308L3.52871 9.2933L15.274 16.0558L27.0207 9.29184L15.274 2.5308H15.2769ZM21.3865 44.7345L28.2018 40.8111V11.3254L23.2675 14.166L16.4507 18.0909V47.5765L21.3865 44.7345ZM57.5789 10.5111L45.8322 17.2736L57.5789 24.0361L69.3241 17.2722L57.5789 10.5111ZM56.4036 26.0712L49.5868 22.1463L44.6525 19.3057V32.6928L51.4678 36.6162L56.4036 39.4583V26.0712ZM29.3741 56.2391L46.6039 46.4027L55.2166 41.4875L43.4787 34.7294L29.964 42.5101L17.6465 49.6013L29.3741 56.2391Z" fill="#FF2D20"/>
</svg>
