<svg width="145" height="75" viewBox="0 0 145 75" fill="none" xmlns="http://www.w3.org/2000/svg">
<path d="M72.0396 75C111.826 75 144.079 58.2107 144.079 37.5C144.079 16.7893 111.826 0 72.0396 0C32.2532 0 0 16.7893 0 37.5C0 58.2107 32.2532 75 72.0396 75Z" fill="#8993BE"/>
<path fill-rule="evenodd" clip-rule="evenodd" d="M20.23 59.7042L28.1251 19.7368H46.3809C54.2755 20.2304 58.223 24.1774 58.223 31.0859C58.223 42.9279 48.8483 49.8359 40.4596 49.3423H31.579L29.6053 59.7042H20.23ZM33.5522 41.9413L36.0196 27.1383H42.4339C45.8879 27.1383 48.3547 28.6185 48.3547 31.5789C47.8617 39.9676 43.9141 41.4478 39.4736 41.9413H33.5522ZM56.3888 49.3423L64.2833 9.37549H73.6586L71.6848 19.7368H80.566C88.4611 20.2304 91.4215 24.1774 90.4348 29.1121L86.9809 49.3423H77.1126L80.5665 31.0859C81.0596 28.6185 81.0596 27.1383 77.6062 27.1383H70.2047L65.7641 49.3423H56.3888ZM86.3489 59.7042L94.2434 19.7368H112.5C120.395 20.2304 124.342 24.1774 124.342 31.0859C124.342 42.9279 114.967 49.8359 106.579 49.3423H97.6973L95.7236 59.7042H86.3489ZM99.6705 41.9413L102.138 27.1383H108.553C112.007 27.1383 114.474 28.6185 114.474 31.5789C113.981 39.9676 110.033 41.4478 105.592 41.9413H99.6711H99.6705Z" fill="#232531"/>
</svg>
